<svg width="24" height="24" viewBox="0 0 24 24" fill="none" xmlns="http://www.w3.org/2000/svg">
  <path d="M12 2C13.1 2 14 2.9 14 4C14 5.1 13.1 6 12 6C10.9 6 10 5.1 10 4C10 2.9 10.9 2 12 2Z" fill="currentColor"/>
  <path d="M12 8C13.1 8 14 8.9 14 10C14 11.1 13.1 12 12 12C10.9 12 10 11.1 10 10C10 8.9 10.9 8 12 8Z" fill="currentColor"/>
  <path d="M12 14C13.1 14 14 14.9 14 16C14 17.1 13.1 18 12 18C10.9 18 10 17.1 10 16C10 14.9 10.9 14 12 14Z" fill="currentColor"/>
  <path d="M18 4C19.1 4 20 4.9 20 6C20 7.1 19.1 8 18 8C16.9 8 16 7.1 16 6C16 4.9 16.9 4 18 4Z" fill="currentColor"/>
  <path d="M6 4C7.1 4 8 4.9 8 6C8 7.1 7.1 8 6 8C4.9 8 4 7.1 4 6C4 4.9 4.9 4 6 4Z" fill="currentColor"/>
</svg> 